<svg id="Capa_1" enable-background="new 0 0 501 501" height="512" viewBox="0 0 501 501" width="512" xmlns="http://www.w3.org/2000/svg"><g><path d="m325.117 350.384c-23.358 59.028-66.794 106.968-121.281 134.28-3.495 1.752-2.66 6.959 1.198 7.592 12.735 2.089 25.801 3.197 39.117 3.242 135.31.46 245.849-109.687 245.849-244.999 0-6.982-.292-13.896-.865-20.73-.843-10.066-13.97-13.362-19.437-4.867-35.046 54.462-85.218 98.267-144.581 125.482z" fill="#003278"/><path d="m322.334 357.146c13.918-32.523 21.666-68.628 21.666-106.646 0-103.057-56.933-192.055-139.363-233.761-3.736-1.891-2.863-7.474 1.271-8.137 12.73-2.041 25.787-3.102 39.092-3.102 128.988 0 234.695 99.681 244.29 226.211-29.641 66.569-92.175 115.262-166.956 125.435z" fill="#00429a"/><path d="m381 250.5c0 116.578-81.422 214.138-190.5 238.916-76.67-17.416-139.676-70.791-170.347-141.452-1.972-4.544-2.176-9.645-.754-14.39 6.679-22.3 10.268-45.934 10.268-70.407 0-29.449-5.196-57.684-14.72-83.838-1.543-4.238-1.611-8.885-.06-13.119 28.272-77.163 94.248-136.143 175.613-154.626 109.078 24.778 190.5 122.338 190.5 238.916z" fill="#4f66cf"/><path d="m309 74.5c-30.074-30.075-66-49.333-102.5-65.992-10.845 1.712-21.454 4.135-31.777 7.221-7.876 2.354-10.838 11.947-5.653 18.326 9.132 11.235 17.674 26.732 25.113 45.916.855 2.206 1.691 4.447 2.509 6.722-18.284.767-36.697 1.196-55.192 1.288v-59.61c-5.098 2.379-10.1 4.93-15 7.642v51.968c-18.495-.092-36.908-.521-55.192-1.288.818-2.275 1.654-4.517 2.509-6.722 1.034-2.666 2.089-5.26 3.164-7.782-9.427 8.886-18.15 18.512-26.075 28.784-5.753 19.625-10.3 41.133-13.542 63.914-7.161-.467-14.296-.987-21.401-1.56-.366.962-.727 1.927-1.081 2.895-2.16 5.895 1.879 12.231 8.139 12.698 4.134.309 8.277.6 12.429.874-2.334 20.335-3.658 41.54-3.907 63.207h-15.174c-4.114 0-7.481 3.366-7.482 7.481v.019.075c.001 4.101 3.325 7.425 7.426 7.425h15.23c.248 21.667 1.573 42.871 3.907 63.207-3.613.238-5.656.49-7.503.754-4.688.672-7.594 5.457-6.021 9.924.017.049.034.097.051.146 1.211 3.434 4.727 5.492 8.318 4.888 1.689-.284 3.188-.553 7.069-.806 3.242 22.781 7.789 44.289 13.542 63.914 7.925 10.272 16.648 19.898 26.075 28.784-1.075-2.521-2.13-5.116-3.164-7.782-.855-2.206-1.691-4.447-2.509-6.722 18.284-.767 36.697-1.196 55.192-1.288v51.968c4.9 2.712 9.902 5.263 15 7.642v-59.61c18.495.092 36.908.521 55.192 1.288-.818 2.275-1.654 4.517-2.509 6.722-10.681 27.545-23.637 47.486-37.344 58.129 15.826 6.106 32.446 10.616 49.661 13.333 39.646-11.82 75.97-33.374 106.044-63.448 47.691-47.69 73.956-111.099 73.956-178.544 0-5.254-.119-10.504-.475-15.674-4.216-61.21-33.049-116.35-77.025-160.326zm-182.5 323.519c-20.147.099-40.2.595-60.098 1.487-5.978-19.574-10.689-41.232-14.024-64.293 24.436-1.338 49.166-2.072 74.122-2.194zm0-80.001c-25.611.125-50.99.886-76.064 2.279-2.322-20.001-3.642-40.904-3.892-62.297h79.956zm0-75.018h-79.956c.25-21.393 1.57-42.295 3.892-62.297 25.074 1.393 50.453 2.154 76.064 2.279zm0-75.019c-24.956-.122-49.686-.855-74.122-2.194 3.334-23.061 8.045-44.719 14.024-64.293 19.898.892 39.951 1.388 60.098 1.487zm244.895 75.41c-.752-.254-1.558-.391-2.395-.391h-52.579c-.505-24.153-3.446-47.735-8.66-70.193 16.265-1.963 32.351-4.208 48.238-6.731 9.213 24.144 14.594 50.164 15.396 77.315zm-21.372-91.56c-15.167 2.364-30.518 4.472-46.032 6.32-6.274-22.177-14.833-43.082-25.51-62.145 10.944-1.08 21.815-2.284 32.601-3.611 15.775 17.649 28.956 37.663 38.941 59.436zm-61.197 189.299c-6.655 22.772-15.739 43.77-26.791 62.339-14.889-1.292-29.902-2.356-45.014-3.191 5.788-19.692 10.36-41.287 13.615-64.165 19.61 1.28 39.018 2.954 58.19 5.017zm-71.805-240.408c15.112-.835 30.125-1.9 45.014-3.191 11.052 18.569 20.137 39.567 26.791 62.339-19.172 2.063-38.58 3.737-58.19 5.017-3.255-22.878-7.827-44.473-13.615-64.165zm15.529 220.485c2.334-20.335 3.658-41.54 3.907-63.207h64.961c-.525 23.867-3.545 46.857-8.702 68.463-19.818-2.166-39.887-3.92-60.166-5.256zm3.907-78.207c-.248-21.667-1.573-42.871-3.907-63.207 20.279-1.337 40.347-3.09 60.165-5.257 5.157 21.606 8.177 44.597 8.702 68.463h-64.96zm61.519-164.155c-9.306 1.064-18.672 2.037-28.092 2.917-1.955-3.01-3.968-5.966-6.037-8.863-11.909-16.673-25.202-30.759-39.53-42.059 27.521 11.358 52.457 27.743 73.659 48.005zm-120.069-57.568c28.768 11.09 54.482 32.805 74.907 61.975-13.403 1.086-26.905 1.987-40.486 2.702-1.335-3.894-2.722-7.697-4.16-11.406-8.74-22.54-18.981-40.456-30.261-53.271zm-36.407 81.704c20.148-.099 40.2-.595 60.098-1.487 5.978 19.574 10.689 41.232 14.024 64.293-24.436 1.338-49.166 2.072-74.122 2.194zm0 80.001c25.611-.125 50.99-.886 76.064-2.279 2.322 20.001 3.642 40.904 3.892 62.297h-79.956zm0 75.018h79.956c-.25 21.393-1.57 42.295-3.892 62.297-25.074-1.393-50.453-2.154-76.064-2.279zm0 140.019v-65c24.956.122 49.686.855 74.122 2.194-3.334 23.061-8.045 44.719-14.024 64.293-19.898-.892-39.951-1.388-60.098-1.487zm36.407 81.704c11.28-12.815 21.521-30.731 30.261-53.271 1.438-3.708 2.825-7.512 4.16-11.406 13.581.715 27.083 1.615 40.486 2.702-20.425 29.17-46.139 50.885-74.907 61.975zm46.41-9.563c14.327-11.3 27.62-25.386 39.53-42.059 2.07-2.897 4.082-5.853 6.037-8.863 9.42.88 18.786 1.853 28.092 2.917-21.201 20.262-46.138 36.647-73.659 48.005zm86.765-61.555c-10.786-1.328-21.657-2.531-32.601-3.611 10.676-19.063 19.236-39.967 25.51-62.145 15.514 1.849 30.865 3.956 46.032 6.32-9.985 21.773-23.166 41.787-38.941 59.436zm44.917-73.68c-15.887-2.524-31.973-4.769-48.238-6.731 5.214-22.458 8.155-46.04 8.66-70.193h52.579c.837 0 1.643-.137 2.395-.391-.802 27.15-6.183 53.17-15.396 77.315z" fill="#8694dd"/><path d="m337.204 297.39c7.915 30.408-12.339 59.844-26.667 80.667-33.191 48.237-82.091 62.419-101.333 68-25.748 7.468-44.403 12.878-54.667 3.333-19.289-17.938 20.307-61.492 2-110-14.258-37.78-50.579-43.956-47.333-65.333 4.063-26.759 64.012-37.127 69.333-38 58.757-9.641 145.149 9.396 158.667 61.333zm-215.204-94.89c18.244-11.833 42.953-8.03 58-1 7.734 3.613 12.333 7.808 15 10 26.84 22.064 72.25 17.535 97 16 49.677-3.081 70.945 2.503 88.432 6.201-7.385-109.058-86.137-198.539-189.932-222.117-9.746 2.214-19.272 5.009-28.538 8.347 5.591 14.895 12.972 32.903 4.038 53.569-10.278 23.772-28.954 20.546-60 54-6.658 7.174-49.615 53.462-36 81.5 4.837 9.961 16.982 17.963 27 16.5 11.147-1.628 10.581-13.647 25-23z" fill="#07b128"/><path d="m312.544 71.956c-30.074-30.075-66.398-51.628-106.044-63.448-15.368 2.426-30.261 6.28-44.538 11.423 1.22 3.25 2.525 6.647 3.727 10.188 10.403 11.43 20.144 28.317 28.494 49.852.855 2.206 1.691 4.447 2.509 6.722-13.484.565-27.038.947-40.643 1.146-7.391 6.889-17.082 11.292-29.548 20.857v59.286c-16.733-.082-33.364-.439-49.874-1.069-2.628 4.835-4.908 9.811-6.55 14.75 18.661.787 37.479 1.228 56.424 1.32v16.97c4.763-2.337 9.846-3.771 15-4.491v-12.479c25.611-.125 50.99-.886 76.064-2.279 1.644 14.164 2.785 28.78 3.401 43.701 4.923 1.373 10.005 2.365 15.127 3.064-.579-16.274-1.768-32.226-3.542-47.675 20.279-1.337 40.347-3.09 60.165-5.257 3.997 16.747 6.71 34.325 7.973 52.498 5.35-.239 10.342-.372 15.012-.414-1.239-18.439-3.911-36.462-7.939-53.814 16.265-1.963 32.351-4.208 48.238-6.731 7.875 20.64 12.95 42.65 14.759 65.565 5.553 1.145 10.455 2.287 15.267 3.186-3.746-61.551-29.504-118.893-73.482-162.871zm-14.568 6.889c-9.306 1.064-18.672 2.037-28.092 2.917-1.955-3.01-3.968-5.966-6.037-8.863-11.909-16.673-25.202-30.759-39.53-42.059 27.521 11.358 52.457 27.743 73.659 48.005zm-120.069-57.568c28.768 11.09 54.482 32.805 74.907 61.975-13.403 1.086-26.905 1.987-40.486 2.702-1.335-3.894-2.722-7.697-4.16-11.406-8.74-22.54-18.981-40.456-30.261-53.271zm-36.407 146.704v-65c20.148-.099 40.2-.595 60.098-1.487 5.978 19.574 10.689 41.232 14.024 64.293-24.436 1.339-49.166 2.072-74.122 2.194zm89.136-3.094c-3.256-22.878-7.828-44.473-13.615-64.165 15.112-.835 30.125-1.9 45.014-3.191 11.052 18.569 20.137 39.567 26.791 62.339-19.172 2.063-38.58 3.737-58.19 5.017zm73.355-6.736c-6.274-22.177-14.833-43.082-25.51-62.145 10.944-1.08 21.815-2.284 32.601-3.611 15.775 17.649 28.956 37.663 38.941 59.436-15.168 2.364-30.518 4.471-46.032 6.32zm12.192 107.399c-11.548-9.813-26.645-17.302-43.314-22.55h-36.412c-.03-2.588-.075-5.17-.135-7.745-5.012-.604-10.038-1.037-15.036-1.301.078 3.005.135 6.02.171 9.045h-71.307c-10.773 3.487-22.357 8.398-30.483 15h6.833v42.737c4.798 4.103 10.044 8.642 15 14.179v-56.915h79.956c-.25 21.393-1.57 42.295-3.892 62.297-24.204-1.344-48.692-2.101-73.398-2.263 3.556 4.36 6.882 9.318 9.682 15.096 20.77.271 41.375.966 61.775 2.083-3.334 23.061-8.045 44.719-14.024 64.293-14.732-.66-29.549-1.104-44.426-1.329-1.295 5.232-2.709 10.229-3.987 14.946 14.567.185 29.078.579 43.507 1.184-.818 2.275-1.654 4.517-2.509 6.722-4.869 12.558-10.211 23.535-15.882 32.771 5.853-.879 12.44-2.521 19.722-4.544 3.567-6.97 6.956-14.579 10.145-22.804 1.438-3.708 2.825-7.512 4.16-11.406 13.581.715 27.083 1.615 40.486 2.702-4.478 6.395-9.21 12.431-14.172 18.076 14.562-6.25 31.555-15.628 47.572-30.045-2.574-.269-5.151-.53-7.733-.785 10.676-19.063 19.236-39.967 25.51-62.145 8.72 1.039 17.388 2.16 26 3.362 2.229-4.638 4.189-9.433 5.705-14.344-9.25-1.317-18.563-2.543-27.935-3.674 4.668-20.112 7.514-41.125 8.421-62.643zm-54.148 137.919c-14.889-1.292-29.902-2.356-45.014-3.191 5.788-19.692 10.36-41.287 13.615-64.165 19.61 1.28 39.018 2.954 58.19 5.017-6.654 22.772-15.739 43.77-26.791 62.339zm30.68-77.006c-19.818-2.167-39.886-3.92-60.165-5.257 2.334-20.335 3.658-41.54 3.907-63.207h64.961c-.525 23.868-3.546 46.858-8.703 68.464z" fill="#0cc33c"/><path d="m139 89.5c0-8.284 6.716-15 15-15s15 6.716 15 15-6.716 15-15 15-15-6.716-15-15zm-25 105c-8.284 0-15 6.716-15 15s6.716 15 15 15 15-6.716 15-15-6.716-15-15-15zm140-50c-8.284 0-15 6.716-15 15s6.716 15 15 15 15-6.716 15-15-6.716-15-15-15zm-85 15c0-8.284-6.716-15-15-15s-15 6.716-15 15 6.716 15 15 15 15-6.716 15-15zm165 155c-8.284 0-15 6.716-15 15s6.716 15 15 15 15-6.716 15-15-6.716-15-15-15zm-170 70c-8.284 0-15 6.716-15 15s6.716 15 15 15 15-6.716 15-15-6.716-15-15-15zm45 45c-8.284 0-15 6.716-15 15s6.716 15 15 15 15-6.716 15-15-6.716-15-15-15z" fill="#e3f0fb"/><path d="m214 294.5c37.827 0 73.474-10.165 104.763-28.122-44.407 62.412-117.331 103.122-199.763 103.122-35.009 0-68.304-7.343-98.427-20.573-13.23-30.123-20.573-63.418-20.573-98.427 0-30.156 5.448-59.039 15.414-85.719 37.873 77.193 112.596 129.719 198.586 129.719z" fill="#bbe0fb"/><path d="m284.241 282.325c-38.548 32.506-87.137 53.879-141.182 58.647-.361.032-.723.063-1.084.093-67.047 5.633-126.281-43.997-132.475-110.995-.033-.361-.066-.723-.098-1.084-1.384-15.693-1.31-31.179.112-46.323 1.743-6.06 3.713-12.024 5.901-17.881 37.872 77.192 112.595 129.718 198.585 129.718 24.528 0 48.14-4.274 70.241-12.175z" fill="#e3f0fb"/><path d="m474.534 117.006-32.452 32.452v143.599c0 8.566-11.43 11.472-15.521 3.947l-46.499-85.525-80.798 80.798c-13.331 13.33-34.483 14.072-48.685 2.226-.837-.698-15.742-13.521-15.742-13.521-14.117-14.117-.81-25.709 13.306-39.825l80.798-80.798-85.525-46.5c-7.525-4.091-4.619-15.521 3.947-15.521h143.599l32.452-32.452c14.116-14.116 58.913-36.025 73.029-21.909 14.117 14.117-7.792 58.913-21.909 73.029z" fill="#f5c02c"/><path d="m457.439 99.91s-177.873 177.688-179.267 178.727c-11.527 11.454-29.737 12.67-42.687 2.836l-45.517-34.566c-7.638-5.898-3.468-18.124 6.183-18.124h64.366l162.897-162.897c11.119-11.119 41.27-27.071 60.472-26.448.624 19.203-15.329 49.354-26.447 60.472z" fill="#fde803"/><path d="m396.5 144.5c0 4.142-3.358 7.5-7.5 7.5s-7.5-3.358-7.5-7.5 3.358-7.5 7.5-7.5 7.5 3.358 7.5 7.5zm12.5-27.5c-4.142 0-7.5 3.358-7.5 7.5s3.358 7.5 7.5 7.5 7.5-3.358 7.5-7.5-3.358-7.5-7.5-7.5zm-40 40c-4.142 0-7.5 3.358-7.5 7.5s3.358 7.5 7.5 7.5 7.5-3.358 7.5-7.5-3.358-7.5-7.5-7.5zm60-60c-4.142 0-7.5 3.358-7.5 7.5s3.358 7.5 7.5 7.5 7.5-3.358 7.5-7.5-3.358-7.5-7.5-7.5zm39.988-55.55c-6.888 1.811-14.139 4.688-20.913 8.031 2.092 7.019-4.685 16.543-8.571 24.608-1.621 3.365-.957 7.382 1.681 10.027l.124.124c4.073 4.082 10.943 3.215 13.802-1.792 7.297-12.774 17.722-29.614 13.877-40.998z" fill="#f5c02c"/><path d="m298.164 293.331c8.13-22.387 12.533-46.338 12.533-71.235 0-13.544-1.303-26.808-3.801-39.693l22.045-22.045s20.783 20.615 38.492 63.749l-68.17 68.169c-.36.361-.727.713-1.099 1.055z" fill="#f3d373"/><path d="m309.097 247.955c1.057-8.485 1.601-17.114 1.601-25.859 0-13.544-1.303-26.809-3.801-39.693l22.081-22.082c10.419 12.5 19.617 26.053 27.411 40.477-17.196 17.158-33.823 33.739-47.292 47.157z" fill="#fdf385"/></g></svg>